Coordinates
version=1
nRows=281
nColumns=2
inDegrees=no
endheader
time	elbow_flexion
0.5002501250625312	0.014052343760323056
0.5012506253126563	0.014192685649989068
0.5022511255627814	0.014334419487776156
0.5032516258129064	0.014477558885561969
0.5042521260630315	0.014622117584444887
0.5052526263131566	0.014768109455892424
0.5062531265632816	0.014915548502898158
0.5072536268134067	0.015064448861147418
0.5082541270635317	0.015214824800191453
0.5092546273136568	0.015366690724630564
0.5102551275637819	0.015520061175305598
0.5112556278139069	0.015674950830498552
0.512256128064032	0.015831374507141727
0.5132566283141571	0.01598934716203571
0.5142571285642821	0.01614888389307624
0.5152576288144072	0.016309999940489994
0.5162581290645323	0.016472710688078963
0.5172586293146573	0.016637031664474073
0.5182591295647824	0.016802978544397475
0.5192596298149074	0.016970567149933818
0.5202601300650325	0.017139813451810662
0.5212606303151576	0.01731073357068748
0.5222611305652826	0.01748334377845401
0.5232616308154077	0.01765766049953751
0.5242621310655328	0.01783370031221883
0.5252626313156578	0.018011479949957762
0.5262631315657829	0.018191016302727424
0.527263631815908	0.0183723264183574
0.528264132066033	0.018555427503886255
0.5292646323161581	0.018740336926923108
0.530265132566283	0.01892707221701794
0.5312656328164082	0.019115651067041405
0.5322661330665333	0.019306091334573425
0.5332666333166582	0.019498411043300957
0.5342671335667833	0.019692628384424957
0.5352676338169085	0.019888761718076155
0.5362681340670334	0.020086829574740134
0.5372686343171585	0.02028685065669143
0.5382691345672836	0.020488843839436652
0.5392696348174086	0.020692828173166557
0.5402701350675337	0.020898822884217513
0.5412706353176588	0.021106847376541494
0.5422711355677838	0.02131692123318549
0.5432716358179089	0.021529064217779784
0.5442721360680339	0.02174329627603514
0.545272636318159	0.021959637537249055
0.5462731365682841	0.022178108315820844
0.5472736368184091	0.022398729112775705
0.5482741370685342	0.022621520617297684
0.5492746373186593	0.022846503708271376
0.5502751375687843	0.0230736994558326
0.5512756378189094	0.023303129122927743
0.5522761380690345	0.023534814166881912
0.5532766383191595	0.02376877624097567
0.5542771385692846	0.024005037196030705
0.5552776388194096	0.024243619082003752
0.5562781390695347	0.02448454414958952
0.5572786393196598	0.02472783485183162
0.5582791395697848	0.024973513845742475
0.5592796398199099	0.025221603993931304
0.560280140070035	0.02547212836624052
0.56128064032016	0.025725110241390493
0.5622811405702851	0.025980573108632624
0.5632816408204102	0.026238540669410164
0.5642821410705352	0.026499036839027632
0.5652826413206603	0.026762085748327908
0.5662831415707853	0.02702771174537727
0.5672836418209104	0.02729593939715856
0.5682841420710355	0.0275667934912716
0.5692846423211605	0.027840299037641725
0.5702851425712856	0.028116481270235846
0.5712856428214107	0.028395365648785604
0.5722861430715357	0.028676977860518267
0.5732866433216608	0.02896134382189499
0.5742871435717859	0.02924848968035571
0.5752876438219109	0.029538441816071574
0.576288144072036	0.02983122684370425
0.5772886443221611	0.030126871614171692
0.5782891445722861	0.030425403216420874
0.5792896448224112	0.030726848979207265
0.5802901450725362	0.03103123647288002
0.5812906453226613	0.03133859351117438
0.5822911455727864	0.03164894815300927
0.5832916458229114	0.03196232870429154
0.5842921460730365	0.032278763719725816
0.5852926463231616	0.03259828200462993
0.5862931465732866	0.03292091261675578
0.5872936468234117	0.033246684868116015
0.5882941470735368	0.03357562832681507
0.5892946473236618	0.033907772818885816
0.5902951475737869	0.03424314843013082
0.5912956478239119	0.03458178550796805
0.592296148074037	0.03492371466328111
0.5932966483241621	0.03526896677227363
0.5942971485742871	0.03561757297832753
0.5952976488244122	0.03596956469386533
0.5962981490745373	0.036324973602215586
0.5972986493246623	0.03668383165948203
0.5982991495747874	0.03704617109641555
0.5992996498249125	0.03741202442028906
0.6003001500750375	0.03778142441677486
0.6013006503251626	0.03815440415182459
0.6023011505752875	0.03853099697355095
0.6033016508254126	0.03891123651411148
0.6043021510755378	0.03929515669159346
0.6053026513256627	0.03968279171190059
0.6063031515757878	0.040074176070640254
0.607303651825913	0.04046934455501139
0.6083041520760379	0.04086833224569291
0.609304652326163	0.04127117451873217
0.6103051525762881	0.041677907047432794
0.6113056528264131	0.042088565804242216
0.6123061530765382	0.04250318706263834
0.6133066533266633	0.04292180739901428
0.6143071535767883	0.04334446369456219
0.6153076538269134	0.04377119313715473
0.6163081540770384	0.04420203322322377
0.6173086543271635	0.04463702175963719
0.6183091545772886	0.0450761968655715
0.6193096548274136	0.045519596974381536
0.6203101550775387	0.04596726083546627
0.6213106553276638	0.046419227516129466
0.6223111555777888	0.046875536403436266
0.6233116558279139	0.04733622720606445
0.624312156078039	0.04780133995614927
0.625312656328164	0.04827091501112289
0.6263131565782891	0.04874499305554719
0.6273136568284141	0.04922361510293853
0.6283141570785392	0.049706822497586206
0.6293146573286643	0.05019465691636171
0.6303151575787893	0.05068716037051995
0.6313156578289144	0.0511843752074914
0.6323161580790395	0.051686344112664144
0.6333166583291645	0.05219311011115595
0.6343171585792896	0.052704716569575906
0.6353176588294147	0.05322120719777408
0.6363181590795397	0.053742626050579674
0.6373186593296648	0.05426901752952688
0.6383191595797898	0.05480042638456702
0.6393196598299149	0.05533689771576762
0.64032016008004	0.055878476974996684
0.641320660330165	0.05642520996759228
0.6423211605802901	0.05697714285401641
0.6433216608304152	0.057534322151492505
0.6443221610805402	0.05809679473562612
0.6453226613306653	0.058664607842007874
0.6463231615807904	0.059237809067798027
0.6473236618309154	0.05981644637329203
0.6483241620810405	0.060400568083466284
0.6493246623311655	0.06099022288950324
0.6503251625812906	0.06158545985029554
0.6513256628314157	0.06218632839392739
0.6523261630815407	0.06279287831913388
0.6533266633316658	0.06340515979673635
0.6543271635817909	0.06402322337105276
0.6553276638319159	0.06464711996128363
0.656328164082041	0.06527690086287145
0.6573286643321661	0.06591261774883271
0.6583291645822911	0.06655432267106265
0.6593296648324162	0.0672020680616112
0.6603301650825413	0.06785590673392856
0.6613306653326663	0.06851589188408112
0.6623311655827914	0.06918207709193543
0.6633316658329164	0.06985451632230925
0.6643321660830415	0.07053326392609041
0.6653326663331666	0.07121837464131965
0.6663331665832916	0.07190990359423924
0.6673336668334167	0.07260790630030511
0.6683341670835418	0.0733124386651605
0.6693346673336668	0.07402355698557216
0.6703351675837919	0.07474131795032694
0.671335667833917	0.0754657786410868
0.672336168084042	0.07619699653320287
0.673336668334167	0.07693502949648694
0.674337168584292	0.07767993579593753
0.6753376688344171	0.07843177409242277
0.6763381690845423	0.07919060344331517
0.6773386693346672	0.07995648330307996
0.6783391695847923	0.08072947352381472
0.6793396698349174	0.08150963435573845
0.6803401700850424	0.08229702644762997
0.6813406703351675	0.08309171084721423
0.6823411705852926	0.08389374900149413
0.6833416708354176	0.0847032027570279
0.6843421710855427	0.08552013436015055
0.6853426713356677	0.08634460645713685
0.6863431715857928	0.08717668209430626
0.6873436718359179	0.08801642471806707
0.6883441720860429	0.088863898174899
0.689344672336168	0.089719166711273
0.6903451725862931	0.09058229497350614
0.6913456728364181	0.09145334800755096
0.6923461730865432	0.09233239125871757
0.6933466733366683	0.09321949057132643
0.6943471735867933	0.09411471218829139
0.6953476738369184	0.09501812275063087
0.6963481740870435	0.09592978929690535
0.6973486743371685	0.09684977926258037
0.6983491745872936	0.09777816047931337
0.6993496748374186	0.09871500117416178
0.7003501750875437	0.09966036996871266
0.7013506753376688	0.1006143358781299
0.7023511755877938	0.10157696831011986
0.7033516758379189	0.10254833706381225
0.704352176088044	0.10352851232855406
0.705352676338169	0.10451756468261704
0.7063531765882941	0.10551556509181545
0.7073536768384192	0.10652258490803161
0.7083541770885442	0.10753869586765012
0.7093546773386693	0.10856397008989677
0.7103551775887943	0.10959848007508058
0.7113556778389194	0.11064229870273928
0.7123561780890445	0.11169549922968294
0.7133566783391695	0.11275815528793727
0.7143571785892946	0.11383034088258376
0.7153576788394197	0.11491213038949268
0.7163581790895447	0.11600359855295048
0.7173586793396698	0.11710482048317851
0.7183591795897949	0.1182158716537389
0.7193596798399199	0.11933682789882924
0.720360180090045	0.12046776541046313
0.72136068034017	0.12160876073553183
0.7223611805902951	0.12275989077275012
0.7233616808404202	0.12392123276947983
0.7243621810905452	0.1250928643184317
0.7253626813406703	0.12627486335424368
0.7263631815907954	0.12746730814993154
0.7273636818409204	0.12867027731321212
0.7283641820910455	0.12988384978269693
0.7293646823411706	0.13110810482395222
0.7303651825912956	0.13234312202542556
0.7313656828414207	0.1335889812942372
0.7323661830915458	0.13484576285183145
0.7333666833416708	0.13611354722948885
0.7343671835917959	0.1373924152636971
0.7353676838419209	0.13868244809137556
0.736368184092046	0.1399837271449555
0.7373686843421711	0.1412963341473112
0.7383691845922961	0.14262035110654078
0.7393696848424212	0.14395586031059524
0.7403701850925463	0.14530294432175245
0.7413706853426713	0.14666168597093526
0.7423711855927964	0.14803216835187138
0.7433716858429215	0.14941447481509224
0.7443721860930465	0.1508086889617699
0.7453726863431716	0.1522148946373898
0.7463731865932965	0.15363317592525597
0.7473736868434216	0.15506361713982952
0.7483741870935467	0.15650630281989464
0.7493746873436717	0.15796131772155395
0.7503751875937968	0.15942874681104902
0.751375687843922	0.16090867525740327
0.7523761880940469	0.16240118842488857
0.753376688344172	0.16390637186531062
0.7543771885942971	0.16542431131011123
0.7553776888444221	0.1669550926622885
0.7563781890945472	0.16849880198812994
0.7573786893446722	0.170055525508757
0.7583791895947973	0.17162534959148235
0.7593796898449224	0.17320836074097254
0.7603801900950474	0.1748046455902197
0.7613806903451725	0.1764142908913182
0.7623811905952976	0.17803738350604217
0.7633816908454226	0.17967401039622674
0.7643821910955477	0.18132425861394935
0.7653826913456728	0.1829882152915062
0.7663831915957978	0.1846659676311881
0.7673836918459229	0.18635760289485095
0.7683841920960479	0.1880632083932769
0.769384692346173	0.18978287147533093
0.7703851925962981	0.1915166795169048
0.7713856928464231	0.19326471990965102
0.7723861930965482	0.19502708004950528
0.7733866933466733	0.19680384732499281
0.7743871935967983	0.19859510910532083
0.7753876938469234	0.20040095272825528
0.7763881940970485	0.20222146548777795
0.7773886943471735	0.2040567346215259
0.7783891945972986	0.20590684729801195
0.7793896948474237	0.20777189060362183
0.7803901950975487	0.2096519515293909
